<svg xmlns="http://www.w3.org/2000/svg" viewBox="0 0 1000 600">
  <defs>
    <linearGradient id="bgGrad4" x1="0%" y1="0%" x2="100%" y2="100%">
      <stop offset="0%" style="stop-color:#f8fafc"/>
      <stop offset="100%" style="stop-color:#e2e8f0"/>
    </linearGradient>
    <linearGradient id="dockerGrad" x1="0%" y1="0%" x2="0%" y2="100%">
      <stop offset="0%" style="stop-color:#2496ED"/>
      <stop offset="100%" style="stop-color:#1D63ED"/>
    </linearGradient>
    <filter id="shadow4" x="-20%" y="-20%" width="140%" height="140%">
      <feDropShadow dx="0" dy="3" stdDeviation="6" flood-color="#1e293b" flood-opacity="0.1"/>
    </filter>
  </defs>
  
  <rect width="1000" height="600" fill="url(#bgGrad4)"/>
  
  <!-- Title -->
  <text x="500" y="35" text-anchor="middle" font-family="Arial, sans-serif" font-size="24" font-weight="bold" fill="#1e293b">Docker 部署架构</text>
  <text x="500" y="58" text-anchor="middle" font-family="Arial, sans-serif" font-size="13" fill="#64748b">Docker Deployment Architecture</text>
  
  <!-- Docker Compose Box -->
  <rect x="50" y="80" width="900" height="480" rx="12" fill="white" stroke="#2496ED" stroke-width="3" filter="url(#shadow4)"/>
  <rect x="50" y="80" width="900" height="40" rx="12" fill="url(#dockerGrad)"/>
  <rect x="50" y="110" width="900" height="10" fill="url(#dockerGrad)"/>
  <text x="500" y="107" text-anchor="middle" font-family="Arial, sans-serif" font-size="16" font-weight="bold" fill="white">🐳 Docker Compose</text>
  
  <!-- ========== Services ========== -->
  
  <!-- Frontend Service -->
  <rect x="80" y="140" width="200" height="180" rx="8" fill="#F5F3FF" stroke="#8B5CF6" stroke-width="2"/>
  <rect x="80" y="140" width="200" height="35" rx="8" fill="#8B5CF6"/>
  <rect x="80" y="165" width="200" height="10" fill="#8B5CF6"/>
  <text x="180" y="163" text-anchor="middle" font-family="Arial, sans-serif" font-size="13" font-weight="bold" fill="white">🌐 frontend</text>
  
  <text x="180" y="200" text-anchor="middle" font-family="monospace" font-size="11" fill="#7C3AED">Next.js 14</text>
  <text x="180" y="220" text-anchor="middle" font-family="monospace" font-size="10" fill="#64748B">Port: 3000</text>
  <text x="180" y="245" text-anchor="middle" font-family="Arial, sans-serif" font-size="10" fill="#475569">http://localhost:3000</text>
  <rect x="100" y="260" width="160" height="40" rx="4" fill="#E0E7FF"/>
  <text x="180" y="283" text-anchor="middle" font-family="monospace" font-size="9" fill="#4338CA">NEXT_PUBLIC_API_URL</text>
  
  <!-- Backend Service -->
  <rect x="300" y="140" width="200" height="180" rx="8" fill="#EFF6FF" stroke="#3B82F6" stroke-width="2"/>
  <rect x="300" y="140" width="200" height="35" rx="8" fill="#3B82F6"/>
  <rect x="300" y="165" width="200" height="10" fill="#3B82F6"/>
  <text x="400" y="163" text-anchor="middle" font-family="Arial, sans-serif" font-size="13" font-weight="bold" fill="white">⚡ backend</text>
  
  <text x="400" y="200" text-anchor="middle" font-family="monospace" font-size="11" fill="#1D4ED8">FastAPI</text>
  <text x="400" y="220" text-anchor="middle" font-family="monospace" font-size="10" fill="#64748B">Port: 8000</text>
  <text x="400" y="245" text-anchor="middle" font-family="Arial, sans-serif" font-size="10" fill="#475569">http://localhost:8000</text>
  <rect x="320" y="260" width="160" height="40" rx="4" fill="#DBEAFE"/>
  <text x="400" y="283" text-anchor="middle" font-family="monospace" font-size="9" fill="#1D4ED8">LLM APIs (DeepSeek...)</text>
  
  <!-- PostgreSQL Service -->
  <rect x="520" y="140" width="200" height="180" rx="8" fill="#ECFDF5" stroke="#10B981" stroke-width="2"/>
  <rect x="520" y="140" width="200" height="35" rx="8" fill="#10B981"/>
  <rect x="520" y="165" width="200" height="10" fill="#10B981"/>
  <text x="620" y="163" text-anchor="middle" font-family="Arial, sans-serif" font-size="13" font-weight="bold" fill="white">🗄️ postgres</text>
  
  <text x="620" y="200" text-anchor="middle" font-family="monospace" font-size="11" fill="#047857">pgvector/pgvector</text>
  <text x="620" y="220" text-anchor="middle" font-family="monospace" font-size="10" fill="#64748B">Port: 5432</text>
  <text x="620" y="245" text-anchor="middle" font-family="Arial, sans-serif" font-size="10" fill="#475569">knowledge_assistant</text>
  <rect x="540" y="260" width="160" height="40" rx="4" fill="#D1FAE5"/>
  <text x="620" y="283" text-anchor="middle" font-family="monospace" font-size="9" fill="#047857">向量存储 + 结构化数据</text>
  
  <!-- Redis Service -->
  <rect x="740" y="140" width="180" height="180" rx="8" fill="#FEF2F2" stroke="#EF4444" stroke-width="2"/>
  <rect x="740" y="140" width="180" height="35" rx="8" fill="#EF4444"/>
  <rect x="740" y="165" width="180" height="10" fill="#EF4444"/>
  <text x="830" y="163" text-anchor="middle" font-family="Arial, sans-serif" font-size="13" font-weight="bold" fill="white">🔴 redis</text>
  
  <text x="830" y="200" text-anchor="middle" font-family="monospace" font-size="11" fill="#DC2626">Redis 7 Alpine</text>
  <text x="830" y="220" text-anchor="middle" font-family="monospace" font-size="10" fill="#64748B">Port: 6379</text>
  <text x="830" y="245" text-anchor="middle" font-family="Arial, sans-serif" font-size="10" fill="#475569">缓存层</text>
  <rect x="760" y="260" width="140" height="40" rx="4" fill="#FEE2E2"/>
  <text x="830" y="283" text-anchor="middle" font-family="monospace" font-size="9" fill="#DC2626">会话缓存 | 限流</text>
  
  <!-- ========== Connections ========== -->
  <!-- Frontend -> Backend -->
  <path d="M280 230 L300 230" stroke="#8B5CF6" stroke-width="2" fill="none" marker-end="url(#arr1)"/>
  <text x="290" y="220" text-anchor="middle" font-family="Arial, sans-serif" font-size="9" fill="#64748B">HTTP</text>
  
  <!-- Backend -> PostgreSQL -->
  <path d="M500 230 L520 230" stroke="#3B82F6" stroke-width="2" fill="none"/>
  <text x="510" y="220" text-anchor="middle" font-family="Arial, sans-serif" font-size="9" fill="#64748B">SQL</text>
  
  <!-- Backend -> Redis -->
  <path d="M500 250 L740 250" stroke="#3B82F6" stroke-width="2" fill="none"/>
  <text x="620" y="240" text-anchor="middle" font-family="Arial, sans-serif" font-size="9" fill="#64748B">Cache</text>
  
  <!-- ========== Network Info ========== -->
  <rect x="80" y="340" width="840" height="200" rx="8" fill="#F8FAFC" stroke="#E2E8F0"/>
  <text x="100" y="365" font-family="Arial, sans-serif" font-size="14" font-weight="bold" fill="#1E293B">📋 启动命令</text>
  
  <rect x="100" y="380" width="800" height="40" rx="4" fill="#1E293B"/>
  <text x="500" y="405" text-anchor="middle" font-family="monospace" font-size="12" fill="#10B981">docker-compose up -d</text>
  
  <text x="100" y="450" font-family="Arial, sans-serif" font-size="14" font-weight="bold" fill="#1E293B">🌐 访问地址</text>
  
  <rect x="100" y="465" width="150" height="55" rx="4" fill="#F5F3FF"/>
  <text x="175" y="488" text-anchor="middle" font-family="Arial, sans-serif" font-size="11" font-weight="bold" fill="#7C3AED">前端应用</text>
  <text x="175" y="505" text-anchor="middle" font-family="monospace" font-size="10" fill="#8B5CF6">localhost:3000</text>
  
  <rect x="270" y="465" width="150" height="55" rx="4" fill="#EFF6FF"/>
  <text x="345" y="488" text-anchor="middle" font-family="Arial, sans-serif" font-size="11" font-weight="bold" fill="#1D4ED8">API 文档</text>
  <text x="345" y="505" text-anchor="middle" font-family="monospace" font-size="10" fill="#3B82F6">localhost:8000/docs</text>
  
  <rect x="440" y="465" width="150" height="55" rx="4" fill="#ECFDF5"/>
  <text x="515" y="488" text-anchor="middle" font-family="Arial, sans-serif" font-size="11" font-weight="bold" fill="#047857">数据库</text>
  <text x="515" y="505" text-anchor="middle" font-family="monospace" font-size="10" fill="#10B981">localhost:5432</text>
  
  <rect x="610" y="465" width="150" height="55" rx="4" fill="#FEF2F2"/>
  <text x="685" y="488" text-anchor="middle" font-family="Arial, sans-serif" font-size="11" font-weight="bold" fill="#DC2626">Redis</text>
  <text x="685" y="505" text-anchor="middle" font-family="monospace" font-size="10" fill="#EF4444">localhost:6379</text>
  
  <!-- Footer -->
  <text x="500" y="570" text-anchor="middle" font-family="Arial, sans-serif" font-size="11" fill="#94a3b8">一键部署 · 数据持久化 · 自动重启</text>
</svg>