<svg xmlns="http://www.w3.org/2000/svg" viewBox="0 0 900 650">
  <defs>
    <linearGradient id="bgGrad3" x1="0%" y1="0%" x2="100%" y2="100%">
      <stop offset="0%" style="stop-color:#f8fafc"/>
      <stop offset="100%" style="stop-color:#e2e8f0"/>
    </linearGradient>
    <filter id="shadow3" x="-20%" y="-20%" width="140%" height="140%">
      <feDropShadow dx="0" dy="2" stdDeviation="4" flood-color="#1e293b" flood-opacity="0.1"/>
    </filter>
  </defs>
  
  <rect width="900" height="650" fill="url(#bgGrad3)"/>
  
  <!-- Title -->
  <text x="450" y="35" text-anchor="middle" font-family="Arial, sans-serif" font-size="24" font-weight="bold" fill="#1e293b">项目目录结构</text>
  <text x="450" y="58" text-anchor="middle" font-family="Arial, sans-serif" font-size="13" fill="#64748b">Project Structure</text>
  
  <!-- Root -->
  <rect x="300" y="75" width="300" height="40" rx="6" fill="#1E293B"/>
  <text x="450" y="100" text-anchor="middle" font-family="monospace" font-size="14" fill="white">📁 knowledge-assistant/</text>
  
  <!-- Root Level Files -->
  <rect x="50" y="75" width="220" height="40" rx="4" fill="#F1F5F9" stroke="#CBD5E1"/>
  <text x="160" y="100" text-anchor="middle" font-family="monospace" font-size="11" fill="#475569">📄 README.md</text>
  
  <rect x="630" y="75" width="220" height="40" rx="4" fill="#F1F5F9" stroke="#CBD5E1"/>
  <text x="740" y="100" text-anchor="middle" font-family="monospace" font-size="11" fill="#475569">📄 docker-compose.yml</text>
  
  <!-- Connection lines to children -->
  <path d="M300 115 L300 130" stroke="#94A3B8" stroke-width="1"/>
  <path d="M450 115 L450 130" stroke="#94A3B8" stroke-width="1"/>
  <path d="M600 115 L600 130" stroke="#94A3B8" stroke-width="1"/>
  <path d="M300 130 L600 130" stroke="#94A3B8" stroke-width="1"/>
  <path d="M300 130 L300 150" stroke="#94A3B8" stroke-width="1"/>
  <path d="M600 130 L600 150" stroke="#94A3B8" stroke-width="1"/>
  
  <!-- ========== BACKEND ========== -->
  <rect x="100" y="150" width="300" height="380" rx="8" fill="white" filter="url(#shadow3)"/>
  <rect x="100" y="150" width="300" height="35" rx="8" fill="#3B82F6"/>
  <rect x="100" y="175" width="300" height="10" fill="#3B82F6"/>
  <text x="250" y="173" text-anchor="middle" font-family="Arial, sans-serif" font-size="14" font-weight="bold" fill="white">📂 backend/</text>
  
  <!-- api folder -->
  <rect x="115" y="195" width="130" height="25" rx="4" fill="#EFF6FF" stroke="#3B82F6"/>
  <text x="180" y="212" text-anchor="middle" font-family="monospace" font-size="10" fill="#1D4ED8">📂 api/</text>
  
  <text x="260" y="210" font-family="monospace" font-size="9" fill="#64748B">chat.py</text>
  <text x="260" y="222" font-family="monospace" font-size="9" fill="#64748B">documents.py</text>
  <text x="260" y="234" font-family="monospace" font-size="9" fill="#64748B">memory.py</text>
  <text x="260" y="246" font-family="monospace" font-size="9" fill="#64748B">search.py</text>
  <text x="260" y="258" font-family="monospace" font-size="9" fill="#64748B">auth.py</text>
  <text x="260" y="270" font-family="monospace" font-size="9" fill="#64748B">settings.py</text>
  
  <!-- core folder -->
  <rect x="115" y="280" width="130" height="25" rx="4" fill="#EFF6FF" stroke="#3B82F6"/>
  <text x="180" y="297" text-anchor="middle" font-family="monospace" font-size="10" fill="#1D4ED8">📂 core/</text>
  
  <text x="260" y="295" font-family="monospace" font-size="9" fill="#64748B">config.py</text>
  <text x="260" y="307" font-family="monospace" font-size="9" fill="#64748B">database.py</text>
  <text x="260" y="319" font-family="monospace" font-size="9" fill="#64748B">auth.py</text>
  
  <!-- services folder -->
  <rect x="115" y="328" width="130" height="25" rx="4" fill="#EFF6FF" stroke="#3B82F6"/>
  <text x="180" y="345" text-anchor="middle" font-family="monospace" font-size="10" fill="#1D4ED8">📂 services/</text>
  
  <text x="260" y="343" font-family="monospace" font-size="9" fill="#64748B">rag_service.py</text>
  <text x="260" y="355" font-family="monospace" font-size="9" fill="#64748B">chat_service.py</text>
  <text x="260" y="367" font-family="monospace" font-size="9" fill="#64748B">document_service.py</text>
  <text x="260" y="379" font-family="monospace" font-size="9" fill="#64748B">memory_service.py</text>
  <text x="260" y="391" font-family="monospace" font-size="9" fill="#64748B">llm_gateway.py</text>
  
  <!-- models folder -->
  <rect x="115" y="400" width="130" height="25" rx="4" fill="#EFF6FF" stroke="#3B82F6"/>
  <text x="180" y="417" text-anchor="middle" font-family="monospace" font-size="10" fill="#1D4ED8">📂 models/</text>
  
  <text x="260" y="415" font-family="monospace" font-size="9" fill="#64748B">models.py</text>
  
  <!-- Root files -->
  <text x="180" y="445" text-anchor="middle" font-family="monospace" font-size="10" fill="#475569">main.py</text>
  <text x="180" y="460" text-anchor="middle" font-family="monospace" font-size="10" fill="#475569">requirements.txt</text>
  <text x="180" y="475" text-anchor="middle" font-family="monospace" font-size="10" fill="#475569">Dockerfile</text>
  
  <!-- ========== FRONTEND ========== -->
  <rect x="500" y="150" width="300" height="380" rx="8" fill="white" filter="url(#shadow3)"/>
  <rect x="500" y="150" width="300" height="35" rx="8" fill="#8B5CF6"/>
  <rect x="500" y="175" width="300" height="10" fill="#8B5CF6"/>
  <text x="650" y="173" text-anchor="middle" font-family="Arial, sans-serif" font-size="14" font-weight="bold" fill="white">📂 frontend/</text>
  
  <!-- app folder -->
  <rect x="515" y="195" width="130" height="25" rx="4" fill="#F5F3FF" stroke="#8B5CF6"/>
  <text x="580" y="212" text-anchor="middle" font-family="monospace" font-size="10" fill="#7C3AED">📂 app/</text>
  
  <text x="660" y="210" font-family="monospace" font-size="9" fill="#64748B">page.tsx</text>
  <text x="660" y="222" font-family="monospace" font-size="9" fill="#64748B">📂 chat/</text>
  <text x="660" y="234" font-family="monospace" font-size="9" fill="#64748B">📂 documents/</text>
  <text x="660" y="246" font-family="monospace" font-size="9" fill="#64748B">📂 memory/</text>
  <text x="660" y="258" font-family="monospace" font-size="9" fill="#64748B">📂 settings/</text>
  <text x="660" y="270" font-family="monospace" font-size="9" fill="#64748B">📂 auth/</text>
  
  <!-- components folder -->
  <rect x="515" y="280" width="130" height="25" rx="4" fill="#F5F3FF" stroke="#8B5CF6"/>
  <text x="580" y="297" text-anchor="middle" font-family="monospace" font-size="10" fill="#7C3AED">📂 components/</text>
  
  <text x="660" y="295" font-family="monospace" font-size="9" fill="#64748B">📂 chat/</text>
  <text x="660" y="307" font-family="monospace" font-size="9" fill="#64748B">📂 documents/</text>
  <text x="660" y="319" font-family="monospace" font-size="9" fill="#64748B">📂 memory/</text>
  <text x="660" y="331" font-family="monospace" font-size="9" fill="#64748B">📂 layout/</text>
  <text x="660" y="343" font-family="monospace" font-size="9" fill="#64748B">📂 ui/</text>
  
  <!-- stores folder -->
  <rect x="515" y="352" width="130" height="25" rx="4" fill="#F5F3FF" stroke="#8B5CF6"/>
  <text x="580" y="369" text-anchor="middle" font-family="monospace" font-size="10" fill="#7C3AED">📂 stores/</text>
  
  <text x="660" y="367" font-family="monospace" font-size="9" fill="#64748B">chatStore.ts</text>
  <text x="660" y="379" font-family="monospace" font-size="9" fill="#64748B">memoryStore.ts</text>
  <text x="660" y="391" font-family="monospace" font-size="9" fill="#64748B">documentStore.ts</text>
  
  <!-- Root files -->
  <text x="580" y="420" text-anchor="middle" font-family="monospace" font-size="10" fill="#475569">package.json</text>
  <text x="580" y="435" text-anchor="middle" font-family="monospace" font-size="10" fill="#475569">next.config.js</text>
  <text x="580" y="450" text-anchor="middle" font-family="monospace" font-size="10" fill="#475569">tailwind.config.js</text>
  <text x="580" y="465" text-anchor="middle" font-family="monospace" font-size="10" fill="#475569">tsconfig.json</text>
  <text x="580" y="480" text-anchor="middle" font-family="monospace" font-size="10" fill="#475569">Dockerfile</text>
  
  <!-- ========== Config Files ========== -->
  <rect x="200" y="545" width="500" height="80" rx="8" fill="white" filter="url(#shadow3)"/>
  <text x="450" y="565" text-anchor="middle" font-family="Arial, sans-serif" font-size="13" font-weight="bold" fill="#64748b">配置文件 Config Files</text>
  
  <rect x="220" y="575" width="140" height="35" rx="4" fill="#FEF3C7" stroke="#F59E0B"/>
  <text x="290" y="598" text-anchor="middle" font-family="monospace" font-size="10" fill="#B45309">.env.example</text>
  
  <rect x="380" y="575" width="160" height="35" rx="4" fill="#FEF3C7" stroke="#F59E0B"/>
  <text x="460" y="598" text-anchor="middle" font-family="monospace" font-size="10" fill="#B45309">.env.docker.example</text>
  
  <rect x="560" y="575" width="120" height="35" rx="4" fill="#F1F5F9" stroke="#CBD5E1"/>
  <text x="620" y="598" text-anchor="middle" font-family="monospace" font-size="10" fill="#64748B">.gitignore</text>
  
  <!-- Footer -->
  <text x="450" y="630" text-anchor="middle" font-family="Arial, sans-serif" font-size="11" fill="#94a3b8">FastAPI + Next.js + PostgreSQL + pgvector</text>
</svg>